<svg width="22" height="22" viewBox="0 0 22 22" fill="none" xmlns="http://www.w3.org/2000/svg">
<path d="M20.8881 15.9738V18.9846C20.8892 19.2642 20.8322 19.5408 20.7206 19.7969C20.6091 20.053 20.4454 20.2829 20.2402 20.4719C20.035 20.6608 19.7927 20.8047 19.5289 20.8942C19.265 20.9838 18.9855 21.017 18.7081 20.9919C15.631 20.6563 12.6751 19.601 10.0781 17.9108C7.66194 16.3699 5.61345 14.3141 4.07812 11.8892C2.38809 9.27099 1.33636 6.29008 1.00812 3.18795C0.983127 2.91042 1.01599 2.63071 1.10462 2.36663C1.19324 2.10254 1.33569 1.85987 1.52288 1.65407C1.71008 1.44826 1.93792 1.28383 2.19191 1.17123C2.44589 1.05864 2.72046 1.00036 2.99812 1.0001H5.99812C6.48342 0.995304 6.95391 1.16778 7.32188 1.48537C7.68985 1.80297 7.93019 2.24401 7.99812 2.72629C8.12474 3.68982 8.35957 4.63587 8.69812 5.54642C8.83266 5.90563 8.86178 6.29602 8.78202 6.67133C8.70227 7.04665 8.51698 7.39115 8.24812 7.66402L6.97812 8.93859C8.40167 11.4512 10.4746 13.5315 12.9781 14.9602L14.2481 13.6856C14.52 13.4158 14.8633 13.2298 15.2372 13.1498C15.6112 13.0698 16.0002 13.099 16.3581 13.234C17.2654 13.5738 18.2081 13.8095 19.1681 13.9365C19.6539 14.0053 20.0975 14.2509 20.4146 14.6265C20.7318 15.0021 20.9003 15.4817 20.8881 15.9738Z" stroke="white" stroke-width="2" stroke-linecap="round" stroke-linejoin="round"/>
</svg>
