<svg width="20" height="22" viewBox="0 0 20 22" fill="none" xmlns="http://www.w3.org/2000/svg">
<path d="M19 9.18182C19 15.5455 10 21 10 21C10 21 1 15.5455 1 9.18182C1 7.01187 1.94821 4.93079 3.63604 3.3964C5.32387 1.86201 7.61305 1 10 1C12.3869 1 14.6761 1.86201 16.364 3.3964C18.0518 4.93079 19 7.01187 19 9.18182Z" stroke="white" stroke-width="2" stroke-linecap="round" stroke-linejoin="round"/>
<path d="M10 11.9091C11.6569 11.9091 13 10.688 13 9.18182C13 7.67559 11.6569 6.45455 10 6.45455C8.34315 6.45455 7 7.67559 7 9.18182C7 10.688 8.34315 11.9091 10 11.9091Z" stroke="white" stroke-width="2" stroke-linecap="round" stroke-linejoin="round"/>
</svg>
